<svg width="16" height="16" viewBox="0 0 16 16" fill="none" xmlns="http://www.w3.org/2000/svg">
    <circle cx="8" cy="8" r="8" fill="#FF165D"/>
    <path d="M8.50815 3.49123C8.4079 3.17625 8.34294 2.89824 8.30084 2.6702C8.25364 2.41448 7.92596 2.28988 7.75485 2.48569C7.33986 2.9606 6.7994 3.70903 6.7994 4.38596C6.7994 5.57895 7.65378 6.17544 7.65378 7.36842C7.65378 8.192 7.01393 8.92281 6.22982 8.85965C5.67536 8.81498 5.19917 8.2784 5.09065 7.96491C5.04726 7.83957 5.0221 7.70106 5.00943 7.56044C4.98207 7.25663 4.58965 7.08213 4.42271 7.33744C4.05266 7.90337 3.66669 8.67976 3.66669 9.45614C3.66669 10.9474 4.80586 13.3333 8.22336 13.3333C11.3561 13.3333 12.78 10.3509 12.2105 8.26316C11.6409 6.17544 8.94309 4.85767 8.50815 3.49123Z" fill="white"/>
    </svg>
    