<svg width="46" height="14" viewBox="0 0 46 14" fill="none" xmlns="http://www.w3.org/2000/svg">
    <path d="M6.24 6.52H5.53V6.62C5.46 8.85 4.94 10.65 3.99 11.98L3.47 11.44C4.3 10.27 4.74 8.67 4.8 6.62V3.51C7.32 3.48 9.59 3.27 11.6 2.87L11.94 3.5C10.03 3.86 7.89 4.07 5.53 4.13V5.83H11.59V6.48C11.21 7.77 10.5 8.88 9.49 9.8C10.35 10.41 11.4 10.94 12.63 11.4L12.23 12.04C10.93 11.51 9.84 10.91 8.96 10.24C8.04 10.96 6.89 11.55 5.54 12.04L5.13 11.42C6.42 10.98 7.51 10.43 8.39 9.78C7.32 8.82 6.61 7.74 6.24 6.52ZM8.91 9.36C9.84 8.54 10.48 7.6 10.85 6.52H6.93C7.27 7.59 7.93 8.53 8.91 9.36ZM17.49 3.33H19.37V2.76H20.08V3.33H21.98V5.3H20.08V5.93H22.52V6.56H16.94V5.93H19.37V5.3H17.49V3.33ZM21.35 4.73V3.91H20.08V4.73H21.35ZM19.37 4.73V3.91H18.13V4.73H19.37ZM21.86 7.22V10.21H21.19V7.83H18.19V10.21H17.51V7.22H21.86ZM20.43 10.25C21.22 10.57 21.94 10.95 22.6 11.41L22.2 12.02C21.51 11.49 20.79 11.08 20.07 10.78L20.43 10.25ZM19.29 8.22H20V9.21C19.97 9.97 19.73 10.59 19.26 11.05C18.82 11.47 18.09 11.82 17.07 12.06L16.68 11.44C17.65 11.24 18.34 10.96 18.73 10.62C19.08 10.25 19.27 9.78 19.29 9.21V8.22ZM14.88 5.15C14.6 5.97 14.24 6.67 13.81 7.23L13.35 6.68C14.02 5.73 14.46 4.45 14.7 2.84L15.41 2.96C15.32 3.51 15.21 4.01 15.08 4.48H16.94V5.05C16.68 5.65 16.39 6.17 16.08 6.59L15.56 6.18C15.78 5.87 15.98 5.53 16.17 5.15H14.88ZM14.83 6.47H15.53V10.85C15.95 10.62 16.37 10.31 16.81 9.91L16.94 10.59C16.35 11.07 15.67 11.47 14.89 11.79L14.6 11.17C14.75 11.08 14.83 10.95 14.83 10.77V6.47ZM25.34 6.21V7.31H30.67V6.21H25.34ZM30.67 5.57V4.49H25.34V5.57H30.67ZM27.99 2.69C28.15 3.02 28.29 3.41 28.42 3.83H31.39V7.97H27.87C28.23 8.61 28.67 9.17 29.2 9.64C29.94 9.34 30.63 8.87 31.3 8.2L31.81 8.71C31.21 9.3 30.53 9.75 29.77 10.07C30.57 10.64 31.53 11.05 32.66 11.3L32.32 11.98C29.87 11.36 28.14 10.02 27.13 7.97H25.34V11.11C26.22 10.91 27.09 10.66 27.94 10.35L28.13 11.03C27.18 11.35 26 11.67 24.58 11.98L24.41 11.32C24.54 11.26 24.61 11.16 24.61 11.02V3.83H27.67C27.53 3.46 27.38 3.11 27.22 2.81L27.99 2.69ZM35.15 2.66L35.86 2.72C35.74 3.43 35.62 4.09 35.5 4.7H37.24V5.11C37.15 6.7 36.82 8.09 36.25 9.27C36.84 9.72 37.31 10.13 37.68 10.5L37.19 11.07C36.85 10.71 36.41 10.33 35.91 9.9C35.41 10.74 34.76 11.45 33.99 12.05L33.49 11.44C34.26 10.89 34.87 10.22 35.35 9.44C34.88 9.07 34.36 8.67 33.8 8.26C34.11 7.37 34.38 6.42 34.62 5.39H33.55V4.7H34.77C34.91 4.03 35.03 3.36 35.15 2.66ZM35.67 8.82C36.15 7.83 36.43 6.68 36.52 5.39H35.35C35.1 6.46 34.85 7.34 34.59 8.05C34.97 8.32 35.34 8.58 35.67 8.82ZM37.58 7H39.86V5.73C40.4 5.26 40.92 4.69 41.41 4H37.87V3.3H42.23V4C41.75 4.7 41.2 5.35 40.59 5.95V7H42.65V7.71H40.59V10.93C40.59 11.57 40.32 11.9 39.8 11.9H38.35L38.16 11.21C38.57 11.21 39.02 11.22 39.51 11.22C39.74 11.22 39.86 11.05 39.86 10.71V7.71H37.58V7Z" fill="#1A85C0"/>
    <rect x="0.25" y="0.25" width="45.5" height="13.5" rx="1.75" stroke="#1A85C0" stroke-width="0.5"/>
    </svg>
    