<svg width="46" height="14" viewBox="0 0 46 14" fill="none" xmlns="http://www.w3.org/2000/svg">
    <path d="M6.24 6.52H5.53V6.62C5.46 8.85 4.94 10.65 3.99 11.98L3.47 11.44C4.3 10.27 4.74 8.67 4.8 6.62V3.51C7.32 3.48 9.59 3.27 11.6 2.87L11.94 3.5C10.03 3.86 7.89 4.07 5.53 4.13V5.83H11.59V6.48C11.21 7.77 10.5 8.88 9.49 9.8C10.35 10.41 11.4 10.94 12.63 11.4L12.23 12.04C10.93 11.51 9.84 10.91 8.96 10.24C8.04 10.96 6.89 11.55 5.54 12.04L5.13 11.42C6.42 10.98 7.51 10.43 8.39 9.78C7.32 8.82 6.61 7.74 6.24 6.52ZM8.91 9.36C9.84 8.54 10.48 7.6 10.85 6.52H6.93C7.27 7.59 7.93 8.53 8.91 9.36ZM17.49 3.33H19.37V2.76H20.08V3.33H21.98V5.3H20.08V5.93H22.52V6.56H16.94V5.93H19.37V5.3H17.49V3.33ZM21.35 4.73V3.91H20.08V4.73H21.35ZM19.37 4.73V3.91H18.13V4.73H19.37ZM21.86 7.22V10.21H21.19V7.83H18.19V10.21H17.51V7.22H21.86ZM20.43 10.25C21.22 10.57 21.94 10.95 22.6 11.41L22.2 12.02C21.51 11.49 20.79 11.08 20.07 10.78L20.43 10.25ZM19.29 8.22H20V9.21C19.97 9.97 19.73 10.59 19.26 11.05C18.82 11.47 18.09 11.82 17.07 12.06L16.68 11.44C17.65 11.24 18.34 10.96 18.73 10.62C19.08 10.25 19.27 9.78 19.29 9.21V8.22ZM14.88 5.15C14.6 5.97 14.24 6.67 13.81 7.23L13.35 6.68C14.02 5.73 14.46 4.45 14.7 2.84L15.41 2.96C15.32 3.51 15.21 4.01 15.08 4.48H16.94V5.05C16.68 5.65 16.39 6.17 16.08 6.59L15.56 6.18C15.78 5.87 15.98 5.53 16.17 5.15H14.88ZM14.83 6.47H15.53V10.85C15.95 10.62 16.37 10.31 16.81 9.91L16.94 10.59C16.35 11.07 15.67 11.47 14.89 11.79L14.6 11.17C14.75 11.08 14.83 10.95 14.83 10.77V6.47ZM25.37 5.54H26.06V7.07H27V7.73H26.06V9.1C26.48 9 26.9 8.89 27.29 8.78V9.47C26.9 9.58 26.48 9.68 26.06 9.78V12H25.37V9.93C24.77 10.05 24.15 10.15 23.5 10.24L23.41 9.54C24.1 9.45 24.75 9.35 25.37 9.24V7.73H23.75L23.59 7.09C23.87 6.49 24.13 5.72 24.37 4.8H23.44V4.09H24.54C24.63 3.67 24.72 3.22 24.81 2.75L25.49 2.86C25.41 3.3 25.32 3.71 25.23 4.09H27V4.8H25.05C24.83 5.66 24.59 6.42 24.33 7.07H25.37V5.54ZM27.38 4.07H29.56C29.39 3.64 29.22 3.25 29.03 2.88L29.76 2.76C29.94 3.15 30.11 3.58 30.27 4.07H32.51V4.78H27.38V4.07ZM28.62 5.15L29.23 5.44C28.8 6.45 28.3 7.31 27.72 8.05L27.15 7.64C27.71 6.94 28.21 6.12 28.62 5.15ZM31 5.11C31.7 6.06 32.25 6.87 32.64 7.57L32.05 7.98C31.65 7.22 31.12 6.39 30.44 5.46L31 5.11ZM30.7 7.05L31.39 7.19C31.21 8.23 30.88 9.11 30.4 9.82C31 10.43 31.77 10.93 32.73 11.34L32.36 11.99C31.37 11.56 30.56 11.03 29.96 10.41C29.27 11.18 28.39 11.73 27.28 12.04L26.88 11.4C27.97 11.1 28.84 10.59 29.48 9.85C28.9 9.09 28.54 8.22 28.39 7.24L29.02 7.05C29.14 7.88 29.44 8.61 29.91 9.26C30.29 8.62 30.55 7.89 30.7 7.05ZM34.06 3.89H36.25C36.09 3.51 35.91 3.17 35.72 2.85L36.46 2.73C36.65 3.07 36.82 3.46 36.98 3.89H39.31C39.53 3.51 39.69 3.1 39.79 2.69L40.54 2.79C40.43 3.19 40.27 3.55 40.06 3.89H42.05V4.56H38.47C38.41 4.87 38.35 5.16 38.28 5.44H41.52V6.12H38.09C37.98 6.42 37.88 6.7 37.77 6.97H42.4V7.66H37.46C37.34 7.88 37.23 8.09 37.11 8.29C37.03 8.41 36.95 8.52 36.87 8.63H41.76V9.34H38.98V10.96H42.39V11.66H34.91V10.96H38.25V9.34H36.27C35.62 10.03 34.81 10.68 33.85 11.26L33.36 10.64C34.77 9.87 35.83 8.95 36.53 7.88C36.58 7.8 36.63 7.73 36.67 7.66H33.77V6.97H37.02C37.15 6.69 37.26 6.41 37.36 6.12H34.64V5.44H37.55C37.61 5.15 37.67 4.86 37.72 4.56H34.06V3.89Z" fill="#EB3349"/>
    <rect x="0.25" y="0.25" width="45.5" height="13.5" rx="1.75" stroke="#EB3349" stroke-width="0.5"/>
    </svg>
    