<svg width="46" height="14" viewBox="0 0 46 14" fill="none" xmlns="http://www.w3.org/2000/svg">
    <path d="M6.24 6.52H5.53V6.62C5.46 8.85 4.94 10.65 3.99 11.98L3.47 11.44C4.3 10.27 4.74 8.67 4.8 6.62V3.51C7.32 3.48 9.59 3.27 11.6 2.87L11.94 3.5C10.03 3.86 7.89 4.07 5.53 4.13V5.83H11.59V6.48C11.21 7.77 10.5 8.88 9.49 9.8C10.35 10.41 11.4 10.94 12.63 11.4L12.23 12.04C10.93 11.51 9.84 10.91 8.96 10.24C8.04 10.96 6.89 11.55 5.54 12.04L5.13 11.42C6.42 10.98 7.51 10.43 8.39 9.78C7.32 8.82 6.61 7.74 6.24 6.52ZM8.91 9.36C9.84 8.54 10.48 7.6 10.85 6.52H6.93C7.27 7.59 7.93 8.53 8.91 9.36ZM17.49 3.33H19.37V2.76H20.08V3.33H21.98V5.3H20.08V5.93H22.52V6.56H16.94V5.93H19.37V5.3H17.49V3.33ZM21.35 4.73V3.91H20.08V4.73H21.35ZM19.37 4.73V3.91H18.13V4.73H19.37ZM21.86 7.22V10.21H21.19V7.83H18.19V10.21H17.51V7.22H21.86ZM20.43 10.25C21.22 10.57 21.94 10.95 22.6 11.41L22.2 12.02C21.51 11.49 20.79 11.08 20.07 10.78L20.43 10.25ZM19.29 8.22H20V9.21C19.97 9.97 19.73 10.59 19.26 11.05C18.82 11.47 18.09 11.82 17.07 12.06L16.68 11.44C17.65 11.24 18.34 10.96 18.73 10.62C19.08 10.25 19.27 9.78 19.29 9.21V8.22ZM14.88 5.15C14.6 5.97 14.24 6.67 13.81 7.23L13.35 6.68C14.02 5.73 14.46 4.45 14.7 2.84L15.41 2.96C15.32 3.51 15.21 4.01 15.08 4.48H16.94V5.05C16.68 5.65 16.39 6.17 16.08 6.59L15.56 6.18C15.78 5.87 15.98 5.53 16.17 5.15H14.88ZM14.83 6.47H15.53V10.85C15.95 10.62 16.37 10.31 16.81 9.91L16.94 10.59C16.35 11.07 15.67 11.47 14.89 11.79L14.6 11.17C14.75 11.08 14.83 10.95 14.83 10.77V6.47ZM24.74 6.29C24.39 6.77 24 7.23 23.57 7.67L23.36 6.94C24.45 5.73 25.24 4.35 25.73 2.8L26.38 3.1C26.14 3.83 25.83 4.52 25.47 5.18V12.01H24.74V6.29ZM26.19 5.23H28.27C28.28 5.03 28.29 4.83 28.29 4.63V2.8H28.98V4.63C28.98 4.83 28.97 5.03 28.96 5.23H32.35V5.93H30.25V10.88C30.25 11.08 30.34 11.18 30.54 11.18H31.42C31.53 11.18 31.62 11.12 31.7 11.01C31.79 10.86 31.85 10.33 31.88 9.4L32.54 9.61C32.47 10.68 32.36 11.33 32.21 11.55C32.07 11.74 31.86 11.84 31.6 11.85H30.35C29.82 11.85 29.56 11.56 29.56 11.01V5.93H28.92C28.7 8.62 27.85 10.64 26.4 11.98L25.87 11.51C27.22 10.28 28.01 8.43 28.23 5.93H26.19V5.23ZM30.3 2.98C30.93 3.42 31.46 3.86 31.88 4.3L31.39 4.8C31.01 4.36 30.49 3.91 29.83 3.44L30.3 2.98ZM38.69 5.44H38.46V7.2H37.71V5.44H37.47C36.85 6.34 35.69 7.1 34 7.75L33.58 7.08C35.1 6.6 36.15 6.05 36.74 5.44H33.77V4.77H37.71V3.9C36.79 3.95 35.8 3.98 34.73 3.98L34.52 3.37C37.13 3.36 39.29 3.18 41.02 2.82L41.37 3.44C40.52 3.62 39.56 3.75 38.46 3.85V4.77H42.24V5.44H39.42C40.11 6.12 41.15 6.65 42.52 7.03L42.19 7.7C40.55 7.12 39.38 6.37 38.69 5.44ZM36.55 8.33H35.13V7.66H40.28V8L39.94 9.01H41.75V9.34C41.67 10.54 41.49 11.27 41.23 11.53C41.08 11.73 40.85 11.84 40.56 11.88C40.19 11.91 39.65 11.93 38.93 11.94L38.73 11.26C39.26 11.27 39.74 11.28 40.14 11.28C40.34 11.28 40.49 11.23 40.59 11.15C40.79 11 40.94 10.51 41.04 9.68H39.04L39.48 8.33H37.23C37.09 10 36.04 11.22 34.11 11.99L33.72 11.35C35.47 10.75 36.41 9.74 36.55 8.33Z" fill="#1AC067"/>
    <rect x="0.25" y="0.25" width="45.5" height="13.5" rx="1.75" stroke="#1AC067" stroke-width="0.5"/>
    </svg>
    