<svg width="46" height="14" viewBox="0 0 46 14" fill="none" xmlns="http://www.w3.org/2000/svg">
    <path d="M6.24 6.52H5.53V6.62C5.46 8.85 4.94 10.65 3.99 11.98L3.47 11.44C4.3 10.27 4.74 8.67 4.8 6.62V3.51C7.32 3.48 9.59 3.27 11.6 2.87L11.94 3.5C10.03 3.86 7.89 4.07 5.53 4.13V5.83H11.59V6.48C11.21 7.77 10.5 8.88 9.49 9.8C10.35 10.41 11.4 10.94 12.63 11.4L12.23 12.04C10.93 11.51 9.84 10.91 8.96 10.24C8.04 10.96 6.89 11.55 5.54 12.04L5.13 11.42C6.42 10.98 7.51 10.43 8.39 9.78C7.32 8.82 6.61 7.74 6.24 6.52ZM8.91 9.36C9.84 8.54 10.48 7.6 10.85 6.52H6.93C7.27 7.59 7.93 8.53 8.91 9.36ZM17.49 3.33H19.37V2.76H20.08V3.33H21.98V5.3H20.08V5.93H22.52V6.56H16.94V5.93H19.37V5.3H17.49V3.33ZM21.35 4.73V3.91H20.08V4.73H21.35ZM19.37 4.73V3.91H18.13V4.73H19.37ZM21.86 7.22V10.21H21.19V7.83H18.19V10.21H17.51V7.22H21.86ZM20.43 10.25C21.22 10.57 21.94 10.95 22.6 11.41L22.2 12.02C21.51 11.49 20.79 11.08 20.07 10.78L20.43 10.25ZM19.29 8.22H20V9.21C19.97 9.97 19.73 10.59 19.26 11.05C18.82 11.47 18.09 11.82 17.07 12.06L16.68 11.44C17.65 11.24 18.34 10.96 18.73 10.62C19.08 10.25 19.27 9.78 19.29 9.21V8.22ZM14.88 5.15C14.6 5.97 14.24 6.67 13.81 7.23L13.35 6.68C14.02 5.73 14.46 4.45 14.7 2.84L15.41 2.96C15.32 3.51 15.21 4.01 15.08 4.48H16.94V5.05C16.68 5.65 16.39 6.17 16.08 6.59L15.56 6.18C15.78 5.87 15.98 5.53 16.17 5.15H14.88ZM14.83 6.47H15.53V10.85C15.95 10.62 16.37 10.31 16.81 9.91L16.94 10.59C16.35 11.07 15.67 11.47 14.89 11.79L14.6 11.17C14.75 11.08 14.83 10.95 14.83 10.77V6.47ZM23.5 6.94H32.56V7.67H23.5V6.94ZM33.46 7.16H34.2V3.81H35.43C35.57 3.47 35.67 3.1 35.74 2.74L36.49 2.84C36.41 3.19 36.31 3.51 36.18 3.81H37.6V11.15C37.6 11.69 37.32 11.98 36.78 11.98H35.86L35.67 11.28C35.99 11.3 36.29 11.32 36.55 11.32C36.8 11.32 36.92 11.18 36.92 10.91V7.83H34.85C34.81 9.54 34.52 10.93 33.98 12.01L33.41 11.49C33.9 10.52 34.15 9.3 34.19 7.83H33.46V7.16ZM36.92 7.16V4.48H34.86V7.16H36.92ZM35.84 5C36.05 5.42 36.24 5.9 36.42 6.45L35.85 6.61C35.71 6.11 35.53 5.63 35.31 5.17L35.84 5ZM35.79 8.38C36.05 8.93 36.28 9.54 36.48 10.22L35.89 10.39C35.71 9.75 35.49 9.15 35.23 8.56L35.79 8.38ZM38.87 3.27H41.65V5.45C41.65 5.64 41.75 5.74 41.95 5.74H42.63V6.42H41.75C41.21 6.42 40.95 6.15 40.95 5.61V3.92H39.57C39.57 4.58 39.51 5.08 39.39 5.42C39.28 5.77 39 6.2 38.54 6.68L37.97 6.18C38.36 5.76 38.6 5.37 38.71 5.01C38.81 4.64 38.87 4.05 38.87 3.27ZM38.24 7.17H42.13V7.79C41.89 8.75 41.48 9.58 40.91 10.25C41.41 10.68 41.99 11.05 42.67 11.38L42.3 12.02C41.55 11.64 40.93 11.23 40.41 10.78C39.85 11.3 39.16 11.72 38.36 12.04L37.96 11.43C38.71 11.13 39.35 10.74 39.89 10.27C39.22 9.55 38.77 8.73 38.54 7.83H38.24V7.17ZM39.2 7.83C39.44 8.55 39.83 9.2 40.38 9.77C40.84 9.21 41.2 8.56 41.43 7.83H39.2Z" fill="#ED8E45"/>
    <rect x="0.25" y="0.25" width="45.5" height="13.5" rx="1.75" stroke="#ED8E45" stroke-width="0.5"/>
    </svg>
    