<svg width="24" height="24" viewBox="0 0 24 24" fill="none" xmlns="http://www.w3.org/2000/svg">
<path d="M5.15818 8.58828L10.1582 4.69939C11.2415 3.8568 12.7585 3.8568 13.8418 4.69939L18.8418 8.58828C19.5726 9.15665 20 10.0306 20 10.9563V15.6C20 18.5823 17.5823 21 14.6 21C14.2686 21 14 20.7314 14 20.4V14C14 12.8954 13.1046 12 12 12C10.8954 12 10 12.8954 10 14V20.4C10 20.7314 9.73137 21 9.4 21C6.41766 21 4 18.5823 4 15.6V10.9563C4 10.0306 4.42742 9.15665 5.15818 8.58828Z" stroke="#2A2A2A" stroke-width="2"/>
</svg>
