<svg width="24" height="24" viewBox="0 0 24 24" fill="none" xmlns="http://www.w3.org/2000/svg">
<path d="M4.54424 7.79893L9.54424 3.91004C10.9887 2.78658 13.0113 2.78658 14.4558 3.91004L19.4558 7.79893C20.4301 8.55675 21 9.72197 21 10.9563V16.4C21 19.4928 18.4928 22 15.4 22C14.6268 22 14 21.3732 14 20.6V15C14 13.8954 13.1046 13 12 13C10.8954 13 10 13.8954 10 15V20.6C10 21.3732 9.3732 22 8.6 22C5.50721 22 3 19.4928 3 16.4V10.9563C3 9.72197 3.56989 8.55675 4.54424 7.79893Z" fill="url(#paint0_linear_37_2582)"/>
<defs>
<linearGradient id="paint0_linear_37_2582" x1="3" y1="12" x2="21" y2="12" gradientUnits="userSpaceOnUse">
<stop stop-color="#F46B45"/>
<stop offset="1" stop-color="#EEA849"/>
</linearGradient>
</defs>
</svg>
