<svg width="24" height="24" viewBox="0 0 24 24" fill="none" xmlns="http://www.w3.org/2000/svg">
<path fill-rule="evenodd" clip-rule="evenodd" d="M10.9315 20.4786C11.5657 20.9783 12.4343 20.9783 13.0685 20.4786C15.1399 18.8467 19.5 14.8835 19.5 10.4358C19.5 8.44667 18.7098 6.53901 17.3033 5.13249C15.8968 3.72597 13.9891 2.93579 12 2.93579C10.0109 2.93579 8.10322 3.72597 6.6967 5.13249C5.29018 6.53901 4.5 8.44667 4.5 10.4358C4.5 14.8835 8.86011 18.8467 10.9315 20.4786ZM14.5 10.4358C14.5 11.8165 13.3807 12.9358 12 12.9358C10.6193 12.9358 9.5 11.8165 9.5 10.4358C9.5 9.05508 10.6193 7.93579 12 7.93579C13.3807 7.93579 14.5 9.05508 14.5 10.4358Z" fill="url(#paint0_linear_233_587)"/>
<defs>
<linearGradient id="paint0_linear_233_587" x1="4.5" y1="11.8946" x2="19.5" y2="11.8946" gradientUnits="userSpaceOnUse">
<stop stop-color="#F46B45"/>
<stop offset="1" stop-color="#EEA849"/>
</linearGradient>
</defs>
</svg>
