<svg width="26" height="14" viewBox="0 0 26 14" fill="none" xmlns="http://www.w3.org/2000/svg">
    <path d="M5.37 5.54H6.06V7.07H7V7.73H6.06V9.1C6.48 9 6.9 8.89 7.29 8.78V9.47C6.9 9.58 6.48 9.68 6.06 9.78V12H5.37V9.93C4.77 10.05 4.15 10.15 3.5 10.24L3.41 9.54C4.1 9.45 4.75 9.35 5.37 9.24V7.73H3.75L3.59 7.09C3.87 6.49 4.13 5.72 4.37 4.8H3.44V4.09H4.54C4.63 3.67 4.72 3.22 4.81 2.75L5.49 2.86C5.41 3.3 5.32 3.71 5.23 4.09H7V4.8H5.05C4.83 5.66 4.59 6.42 4.33 7.07H5.37V5.54ZM7.38 4.07H9.56C9.39 3.64 9.22 3.25 9.03 2.88L9.76 2.76C9.94 3.15 10.11 3.58 10.27 4.07H12.51V4.78H7.38V4.07ZM8.62 5.15L9.23 5.44C8.8 6.45 8.3 7.31 7.72 8.05L7.15 7.64C7.71 6.94 8.21 6.12 8.62 5.15ZM11 5.11C11.7 6.06 12.25 6.87 12.64 7.57L12.05 7.98C11.65 7.22 11.12 6.39 10.44 5.46L11 5.11ZM10.7 7.05L11.39 7.19C11.21 8.23 10.88 9.11 10.4 9.82C11 10.43 11.77 10.93 12.73 11.34L12.36 11.99C11.37 11.56 10.56 11.03 9.96 10.41C9.27 11.18 8.39 11.73 7.28 12.04L6.88 11.4C7.97 11.1 8.84 10.59 9.48 9.85C8.9 9.09 8.54 8.22 8.39 7.24L9.02 7.05C9.14 7.88 9.44 8.61 9.91 9.26C10.29 8.62 10.55 7.89 10.7 7.05ZM14.06 3.89H16.25C16.09 3.51 15.91 3.17 15.72 2.85L16.46 2.73C16.65 3.07 16.82 3.46 16.98 3.89H19.31C19.53 3.51 19.69 3.1 19.79 2.69L20.54 2.79C20.43 3.19 20.27 3.55 20.06 3.89H22.05V4.56H18.47C18.41 4.87 18.35 5.16 18.28 5.44H21.52V6.12H18.09C17.98 6.42 17.88 6.7 17.77 6.97H22.4V7.66H17.46C17.34 7.88 17.23 8.09 17.11 8.29C17.03 8.41 16.95 8.52 16.87 8.63H21.76V9.34H18.98V10.96H22.39V11.66H14.91V10.96H18.25V9.34H16.27C15.62 10.03 14.81 10.68 13.85 11.26L13.36 10.64C14.77 9.87 15.83 8.95 16.53 7.88C16.58 7.8 16.63 7.73 16.67 7.66H13.77V6.97H17.02C17.15 6.69 17.26 6.41 17.36 6.12H14.64V5.44H17.55C17.61 5.15 17.67 4.86 17.72 4.56H14.06V3.89Z" fill="#EB3349"/>
    <rect x="0.25" y="0.25" width="25.5" height="13.5" rx="1.75" stroke="#EB3349" stroke-width="0.5"/>
    </svg>
    