<svg width="26" height="14" viewBox="0 0 26 14" fill="none" xmlns="http://www.w3.org/2000/svg">
    <path d="M5.34 6.21V7.31H10.67V6.21H5.34ZM10.67 5.57V4.49H5.34V5.57H10.67ZM7.99 2.69C8.15 3.02 8.29 3.41 8.42 3.83H11.39V7.97H7.87C8.23 8.61 8.67 9.17 9.2 9.64C9.94 9.34 10.63 8.87 11.3 8.2L11.81 8.71C11.21 9.3 10.53 9.75 9.77 10.07C10.57 10.64 11.53 11.05 12.66 11.3L12.32 11.98C9.87 11.36 8.14 10.02 7.13 7.97H5.34V11.11C6.22 10.91 7.09 10.66 7.94 10.35L8.13 11.03C7.18 11.35 6 11.67 4.58 11.98L4.41 11.32C4.54 11.26 4.61 11.16 4.61 11.02V3.83H7.67C7.53 3.46 7.38 3.11 7.22 2.81L7.99 2.69ZM15.15 2.66L15.86 2.72C15.74 3.43 15.62 4.09 15.5 4.7H17.24V5.11C17.15 6.7 16.82 8.09 16.25 9.27C16.84 9.72 17.31 10.13 17.68 10.5L17.19 11.07C16.85 10.71 16.41 10.33 15.91 9.9C15.41 10.74 14.76 11.45 13.99 12.05L13.49 11.44C14.26 10.89 14.87 10.22 15.35 9.44C14.88 9.07 14.36 8.67 13.8 8.26C14.11 7.37 14.38 6.42 14.62 5.39H13.55V4.7H14.77C14.91 4.03 15.03 3.36 15.15 2.66ZM15.67 8.82C16.15 7.83 16.43 6.68 16.52 5.39H15.35C15.1 6.46 14.85 7.34 14.59 8.05C14.97 8.32 15.34 8.58 15.67 8.82ZM17.58 7H19.86V5.73C20.4 5.26 20.92 4.69 21.41 4H17.87V3.3H22.23V4C21.75 4.7 21.2 5.35 20.59 5.95V7H22.65V7.71H20.59V10.93C20.59 11.57 20.32 11.9 19.8 11.9H18.35L18.16 11.21C18.57 11.21 19.02 11.22 19.51 11.22C19.74 11.22 19.86 11.05 19.86 10.71V7.71H17.58V7Z" fill="#1A85C0"/>
    <rect x="0.25" y="0.25" width="25.5" height="13.5" rx="1.75" stroke="#1A85C0" stroke-width="0.5"/>
    </svg>
    