<svg width="26" height="14" viewBox="0 0 26 14" fill="none" xmlns="http://www.w3.org/2000/svg">
    <path d="M4.74 6.29C4.39 6.77 4 7.23 3.57 7.67L3.36 6.94C4.45 5.73 5.24 4.35 5.73 2.8L6.38 3.1C6.14 3.83 5.83 4.52 5.47 5.18V12.01H4.74V6.29ZM6.19 5.23H8.27C8.28 5.03 8.29 4.83 8.29 4.63V2.8H8.98V4.63C8.98 4.83 8.97 5.03 8.96 5.23H12.35V5.93H10.25V10.88C10.25 11.08 10.34 11.18 10.54 11.18H11.42C11.53 11.18 11.62 11.12 11.7 11.01C11.79 10.86 11.85 10.33 11.88 9.4L12.54 9.61C12.47 10.68 12.36 11.33 12.21 11.55C12.07 11.74 11.86 11.84 11.6 11.85H10.35C9.82 11.85 9.56 11.56 9.56 11.01V5.93H8.92C8.7 8.62 7.85 10.64 6.4 11.98L5.87 11.51C7.22 10.28 8.01 8.43 8.23 5.93H6.19V5.23ZM10.3 2.98C10.93 3.42 11.46 3.86 11.88 4.3L11.39 4.8C11.01 4.36 10.49 3.91 9.83 3.44L10.3 2.98ZM18.69 5.44H18.46V7.2H17.71V5.44H17.47C16.85 6.34 15.69 7.1 14 7.75L13.58 7.08C15.1 6.6 16.15 6.05 16.74 5.44H13.77V4.77H17.71V3.9C16.79 3.95 15.8 3.98 14.73 3.98L14.52 3.37C17.13 3.36 19.29 3.18 21.02 2.82L21.37 3.44C20.52 3.62 19.56 3.75 18.46 3.85V4.77H22.24V5.44H19.42C20.11 6.12 21.15 6.65 22.52 7.03L22.19 7.7C20.55 7.12 19.38 6.37 18.69 5.44ZM16.55 8.33H15.13V7.66H20.28V8L19.94 9.01H21.75V9.34C21.67 10.54 21.49 11.27 21.23 11.53C21.08 11.73 20.85 11.84 20.56 11.88C20.19 11.91 19.65 11.93 18.93 11.94L18.73 11.26C19.26 11.27 19.74 11.28 20.14 11.28C20.34 11.28 20.49 11.23 20.59 11.15C20.79 11 20.94 10.51 21.04 9.68H19.04L19.48 8.33H17.23C17.09 10 16.04 11.22 14.11 11.99L13.72 11.35C15.47 10.75 16.41 9.74 16.55 8.33Z" fill="#1AC067"/>
    <rect x="0.25" y="0.25" width="25.5" height="13.5" rx="1.75" stroke="#1AC067" stroke-width="0.5"/>
    </svg>
    