<svg width="26" height="14" viewBox="0 0 26 14" fill="none" xmlns="http://www.w3.org/2000/svg">
    <path d="M3.5 6.94H12.56V7.67H3.5V6.94ZM13.46 7.16H14.2V3.81H15.43C15.57 3.47 15.67 3.1 15.74 2.74L16.49 2.84C16.41 3.19 16.31 3.51 16.18 3.81H17.6V11.15C17.6 11.69 17.32 11.98 16.78 11.98H15.86L15.67 11.28C15.99 11.3 16.29 11.32 16.55 11.32C16.8 11.32 16.92 11.18 16.92 10.91V7.83H14.85C14.81 9.54 14.52 10.93 13.98 12.01L13.41 11.49C13.9 10.52 14.15 9.3 14.19 7.83H13.46V7.16ZM16.92 7.16V4.48H14.86V7.16H16.92ZM15.84 5C16.05 5.42 16.24 5.9 16.42 6.45L15.85 6.61C15.71 6.11 15.53 5.63 15.31 5.17L15.84 5ZM15.79 8.38C16.05 8.93 16.28 9.54 16.48 10.22L15.89 10.39C15.71 9.75 15.49 9.15 15.23 8.56L15.79 8.38ZM18.87 3.27H21.65V5.45C21.65 5.64 21.75 5.74 21.95 5.74H22.63V6.42H21.75C21.21 6.42 20.95 6.15 20.95 5.61V3.92H19.57C19.57 4.58 19.51 5.08 19.39 5.42C19.28 5.77 19 6.2 18.54 6.68L17.97 6.18C18.36 5.76 18.6 5.37 18.71 5.01C18.81 4.64 18.87 4.05 18.87 3.27ZM18.24 7.17H22.13V7.79C21.89 8.75 21.48 9.58 20.91 10.25C21.41 10.68 21.99 11.05 22.67 11.38L22.3 12.02C21.55 11.64 20.93 11.23 20.41 10.78C19.85 11.3 19.16 11.72 18.36 12.04L17.96 11.43C18.71 11.13 19.35 10.74 19.89 10.27C19.22 9.55 18.77 8.73 18.54 7.83H18.24V7.17ZM19.2 7.83C19.44 8.55 19.83 9.2 20.38 9.77C20.84 9.21 21.2 8.56 21.43 7.83H19.2Z" fill="#ED8E45"/>
    <rect x="0.25" y="0.25" width="25.5" height="13.5" rx="1.75" stroke="#ED8E45" stroke-width="0.5"/>
    </svg>
    