<svg width="24" height="24" viewBox="0 0 24 24" fill="none" xmlns="http://www.w3.org/2000/svg">
<path fill-rule="evenodd" clip-rule="evenodd" d="M12 13C14.7614 13 17 10.7614 17 8C17 5.23858 14.7614 3 12 3C9.23858 3 7 5.23858 7 8C7 10.7614 9.23858 13 12 13ZM3 18V20C3 21.1046 3.89543 22 5 22H19C20.1046 22 21 21.1046 21 20V18C21 15.7909 19.2091 14 17 14H7C4.79086 14 3 15.7909 3 18Z" fill="url(#paint0_linear_37_2638)"/>
<defs>
<linearGradient id="paint0_linear_37_2638" x1="3" y1="12.5" x2="21" y2="12.5" gradientUnits="userSpaceOnUse">
<stop stop-color="#F46B45"/>
<stop offset="1" stop-color="#EEA849"/>
</linearGradient>
</defs>
</svg>
